<svg width="12" height="13" viewBox="0 0 12 13" fill="none" xmlns="http://www.w3.org/2000/svg">
<path fill-rule="evenodd" clip-rule="evenodd" d="M3.94341 1.01565C4.30969 0.947659 5.09517 0.80186 5.51874 0.553319L5.51602 0.554157L5.56358 0.527538C6.00121 0.282522 6.50583 0 6.9682 0H7.01268C7.0971 0.00513482 7.17907 0.0283692 7.25208 0.067862C7.32509 0.107354 7.38714 0.162018 7.4333 0.227516C7.47945 0.293015 7.50845 0.367546 7.518 0.4452C7.52754 0.522854 7.51736 0.601494 7.48827 0.674882C7.44072 0.796233 7.34163 1.08039 7.22621 1.41139C7.08168 1.82587 6.91153 2.31381 6.78487 2.64755C6.76775 2.69097 6.76225 2.73757 6.76884 2.78338C6.77542 2.82919 6.7939 2.87285 6.82269 2.91064C6.85148 2.94844 6.88973 2.97924 6.93419 3.00043C6.97865 3.02162 7.028 3.03258 7.07803 3.03236C7.66616 3.03236 8.26247 3.02313 8.82429 2.99295C8.86626 2.99069 8.90829 2.99628 8.94787 3.00939C8.98745 3.02249 9.02375 3.04285 9.0546 3.06923C9.08546 3.09562 9.11022 3.12749 9.12742 3.16293C9.14461 3.19837 9.15387 3.23665 9.15466 3.27548C9.1601 3.52615 8.97132 4.34523 8.79706 4.71579C8.77706 4.75958 8.74532 4.79795 8.70483 4.82729C8.66434 4.85662 8.61643 4.87595 8.56561 4.88346C7.76552 4.99678 6.95716 5.05284 6.14772 5.05113C6.08037 5.05058 6.01468 5.07046 5.96074 5.10771C5.9068 5.14497 5.86758 5.19754 5.84911 5.25737C4.92515 8.11451 4.25896 11.0035 6.00522 10.7621C6.51893 10.6925 7.03446 10.4275 7.53184 10.0352C7.7177 10.3889 7.98873 10.6986 8.32419 10.9406C7.38208 11.7631 6.3011 12.2661 5.11303 12.2661C1.25747 12.2661 1.09319 9.59002 2.22952 5.49211C2.24257 5.44542 2.24493 5.39673 2.23648 5.34915C2.22802 5.30157 2.20892 5.25614 2.1804 5.21576C2.15188 5.17537 2.11456 5.14092 2.07082 5.1146C2.02709 5.08827 1.9779 5.07066 1.92638 5.06287C1.77572 5.04275 0.46239 4.86669 0.309003 4.84238C0.23282 4.82961 0.162847 4.7952 0.108835 4.74396C0.0548217 4.69271 0.0194587 4.62718 0.00767309 4.5565C-0.0340775 4.27397 0.0993432 3.34255 0.357107 2.85882C0.39235 2.79777 0.445783 2.74733 0.511086 2.71346C0.576388 2.67958 0.650828 2.66369 0.7256 2.66767C0.800112 2.6734 1.05779 2.70167 1.36977 2.73588C1.87861 2.79169 2.5319 2.86334 2.77047 2.87894C2.85429 2.88387 2.93751 2.8629 3.00702 2.81934C3.07653 2.77578 3.12837 2.7121 3.15439 2.63832C3.20426 2.50428 3.3155 2.16019 3.41705 1.84604C3.50034 1.58841 3.57712 1.35092 3.6082 1.26593C3.62984 1.20634 3.66765 1.15286 3.71802 1.11059C3.76838 1.06833 3.82963 1.03868 3.89591 1.02448L3.94341 1.01565Z" fill="#04183E"/>
<path d="M8.17373 8.41683C8.19188 8.3491 8.2156 8.28275 8.24468 8.21837C8.37409 7.92185 8.58653 7.66252 8.86021 7.46701C9.13387 7.2715 9.45891 7.14685 9.80192 7.10587C10.1449 7.06488 10.4936 7.10904 10.812 7.2338C11.1305 7.35856 11.4073 7.55943 11.614 7.81578C11.8207 8.07214 11.9498 8.37473 11.9882 8.69249C12.0266 9.01025 11.9727 9.33173 11.8323 9.62391C11.6918 9.91608 11.4697 10.1684 11.1889 10.355C10.908 10.5416 10.5785 10.6558 10.2341 10.6857H10.2296C9.91995 10.7128 9.60782 10.6701 9.31992 10.5612C8.8797 10.396 8.51986 10.0879 8.30798 9.69474C8.0961 9.3016 8.04674 8.85048 8.16918 8.42608L8.17373 8.41683Z" fill="#0095FF"/>
</svg>
