<svg width="12" height="18" viewBox="0 0 12 18" fill="none" xmlns="http://www.w3.org/2000/svg">
<path d="M11.6254 9C11.6257 9.24589 11.5736 9.48901 11.4725 9.71315C11.3714 9.93728 11.2236 10.1373 11.0391 10.2998L2.65561 17.6752C2.3778 17.9083 2.01982 18.0234 1.6582 17.996C1.29659 17.9686 0.960042 17.8008 0.720533 17.5285C0.481023 17.2562 0.357558 16.901 0.376538 16.5389C0.395519 16.1767 0.555438 15.8363 0.822101 15.5906L8.15313 9.14133C8.17325 9.12369 8.18938 9.10196 8.20042 9.07758C8.21147 9.05321 8.21718 9.02676 8.21718 9C8.21718 8.97324 8.21147 8.94679 8.20042 8.92242C8.18938 8.89804 8.17325 8.87631 8.15313 8.85867L0.822101 2.40944C0.555438 2.16366 0.395519 1.8233 0.376538 1.46115C0.357558 1.09899 0.481023 0.743784 0.720533 0.471476C0.960042 0.199167 1.29659 0.0313728 1.6582 0.00397187C2.01982 -0.023429 2.3778 0.0917383 2.65561 0.324848L11.0361 7.69798C11.2211 7.86076 11.3693 8.06105 11.4709 8.28554C11.5725 8.51003 11.6252 8.75358 11.6254 9Z" fill="#0095FF"/>
</svg>
