<svg width="16" height="16" viewBox="0 0 16 16" fill="none" xmlns="http://www.w3.org/2000/svg">
<path d="M11.7423 5.16833H15.9004L8 15.9358L11.7423 5.16833Z" fill="#F6AE2B"/>
<path d="M0.0996094 5.16837L4.25771 0V5.16837H0.0996094Z" fill="#FFCF60"/>
<path d="M11.7422 0V5.16837H15.9003L11.7422 0Z" fill="#F6AE2B"/>
<path d="M4.25781 5.16838L7.9984 16L11.7423 5.16838H4.25781ZM4.25781 0H8.00007L4.25781 5.16838V0ZM8.00007 0L11.7423 5.16838V0H8.00007Z" fill="#F6AE2B"/>
<path d="M11.7424 5.16838H4.25781L8.00008 0L11.7424 5.16838ZM11.7424 5.16838L13.8214 4.30698L15.9004 5.16838L13.8214 6.02977L11.7424 5.16838Z" fill="#FFC13D"/>
<path d="M4.25769 5.1684H0.0996094L7.99829 16L4.25769 5.1684ZM4.25769 5.1684L7.99995 4.30701L11.7422 5.1684L7.99995 6.0298L4.25769 5.1684Z" fill="#FFCF60"/>
<path d="M0.0996094 5.1684L2.17866 4.30701L4.25771 5.1684L2.17866 6.0298L0.0996094 5.1684Z" fill="#FFCF60"/>
</svg>
