<svg width="32" height="40" viewBox="0 0 32 40" fill="none" xmlns="http://www.w3.org/2000/svg">
<path d="M28.5001 15.8333H27.2501V11.25C27.2501 8.26631 26.0648 5.40483 23.955 3.29505C21.8452 1.18526 18.9838 0 16.0001 0C13.0164 0 10.1549 1.18526 8.04513 3.29505C5.93535 5.40483 4.75008 8.26631 4.75008 11.25V15.8333H3.50008C2.61603 15.8333 1.76818 16.1845 1.14306 16.8096C0.517937 17.4348 0.166748 18.2826 0.166748 19.1667V36.6667C0.166748 37.5507 0.517937 38.3986 1.14306 39.0237C1.76818 39.6488 2.61603 40 3.50008 40H28.5001C29.3841 40 30.232 39.6488 30.8571 39.0237C31.4822 38.3986 31.8334 37.5507 31.8334 36.6667V19.1667C31.8334 18.2826 31.4822 17.4348 30.8571 16.8096C30.232 16.1845 29.3841 15.8333 28.5001 15.8333ZM16.0001 30.8333C15.3408 30.8333 14.6963 30.6378 14.1482 30.2716C13.6 29.9053 13.1728 29.3847 12.9205 28.7756C12.6682 28.1665 12.6022 27.4963 12.7308 26.8497C12.8594 26.2031 13.1769 25.6092 13.6431 25.143C14.1092 24.6768 14.7032 24.3593 15.3498 24.2307C15.9964 24.1021 16.6666 24.1681 17.2757 24.4204C17.8848 24.6727 18.4054 25.0999 18.7716 25.6481C19.1379 26.1963 19.3334 26.8407 19.3334 27.5C19.3334 28.3841 18.9822 29.2319 18.3571 29.857C17.732 30.4821 16.8841 30.8333 16.0001 30.8333ZM23.0834 15C23.0834 15.221 22.9956 15.433 22.8393 15.5893C22.6831 15.7455 22.4711 15.8333 22.2501 15.8333H9.75008C9.52907 15.8333 9.31711 15.7455 9.16082 15.5893C9.00454 15.433 8.91675 15.221 8.91675 15V11.25C8.91675 9.37138 9.66302 7.56971 10.9914 6.24133C12.3198 4.91294 14.1215 4.16667 16.0001 4.16667C17.8787 4.16667 19.6804 4.91294 21.0088 6.24133C22.3371 7.56971 23.0834 9.37138 23.0834 11.25V15Z" fill="#0095FF"/>
</svg>
