<svg width="464" height="464" viewBox="0 0 464 464" fill="none" xmlns="http://www.w3.org/2000/svg">
<circle cx="232" cy="232" r="232" fill="#0079FF"/>
<path d="M221.801 109.135C212.829 114.834 195.84 118.07 188.927 119.467C187.584 119.779 186.344 120.429 185.324 121.356C184.303 122.283 183.537 123.455 183.099 124.762C181.702 128.899 175.745 149.509 173.906 154.86C173.379 156.477 172.329 157.874 170.921 158.829C169.513 159.785 167.827 160.244 166.129 160.136C158.334 159.585 128.678 155.834 124.706 155.503C123.192 155.416 121.684 155.764 120.361 156.507C119.038 157.25 117.956 158.356 117.242 159.695C112.02 170.303 109.317 190.73 110.163 196.926C110.402 198.476 111.118 199.913 112.212 201.037C113.307 202.161 114.724 202.915 116.267 203.195C119.374 203.729 145.978 207.59 149.03 208.031C150.074 208.202 151.07 208.588 151.956 209.165C152.842 209.743 153.598 210.498 154.176 211.384C154.754 212.269 155.141 213.266 155.312 214.309C155.483 215.353 155.435 216.42 155.171 217.444C132.152 307.313 135.48 366 213.582 366C237.649 366 259.546 354.969 278.631 336.932C271.835 331.625 266.345 324.833 262.58 317.076C252.505 325.68 242.062 331.49 231.655 333.016C196.281 338.311 209.777 274.954 228.493 212.296C228.867 210.984 229.662 209.831 230.754 209.014C231.847 208.197 233.178 207.761 234.542 207.773C250.939 207.811 267.314 206.581 283.521 204.096C284.551 203.932 285.521 203.508 286.341 202.864C287.161 202.221 287.804 201.38 288.21 200.419C291.74 192.293 295.564 174.33 295.454 168.833C295.438 167.981 295.25 167.142 294.902 166.364C294.553 165.587 294.052 164.888 293.427 164.31C292.802 163.731 292.066 163.285 291.265 162.997C290.463 162.71 289.611 162.587 288.761 162.637C277.38 163.299 265.301 163.501 253.387 163.501C252.374 163.506 251.374 163.265 250.474 162.801C249.573 162.336 248.798 161.66 248.215 160.832C247.632 160.003 247.257 159.045 247.124 158.041C246.991 157.036 247.102 156.014 247.449 155.062C252.063 141.898 259.528 117.794 261.697 111.8C262.287 110.191 262.493 108.466 262.3 106.763C262.106 105.06 261.519 103.426 260.584 101.99C259.649 100.553 258.392 99.3543 256.913 98.4882C255.434 97.6222 253.774 97.1126 252.063 97H251.163C241.455 97 230.828 103.656 221.746 109.153" fill="white"/>
<path d="M277.087 277.399C276.499 278.807 276.02 280.257 275.653 281.738L275.561 281.94C273.086 291.219 274.084 301.082 278.366 309.677C282.649 318.272 289.921 325.009 298.819 328.621C304.637 331 310.946 331.934 317.204 331.342H317.296C324.256 330.688 330.916 328.193 336.592 324.113C342.269 320.033 346.757 314.516 349.596 308.128C352.435 301.741 353.523 294.712 352.748 287.765C351.972 280.818 349.362 274.202 345.184 268.597C341.006 262.993 335.412 258.601 328.976 255.873C322.539 253.146 315.493 252.18 308.56 253.076C301.628 253.972 295.058 256.698 289.527 260.972C283.996 265.247 279.702 270.916 277.087 277.399Z" fill="#FE6E46"/>
</svg>
