<svg width="106" height="24" viewBox="0 0 106 24" fill="none" xmlns="http://www.w3.org/2000/svg">
<path d="M90.1841 16.5081C90.5668 13.4442 92.5328 10.4675 94.682 10.4675C94.682 10.4675 97.0537 10.4675 96.3062 14.8974C96.1741 15.7171 95.9521 16.5216 95.6438 17.2979C95.3413 17.2774 95.0376 17.3172 94.7524 17.4146C94.4672 17.512 94.207 17.6649 93.9885 17.8634C93.7364 18.1112 93.5889 18.4373 93.5739 18.7805C93.5239 19.2076 93.6298 19.6381 93.874 20.0008C93.3247 20.6024 92.5498 20.9801 91.7117 21.0545C90.1702 21.0545 89.7972 19.5712 90.18 16.5034L90.1841 16.5081ZM10.5496 1.08994C9.56688 1.53804 8.51989 1.84808 7.44195 2.01019C7.31593 2.03783 7.19948 2.09534 7.1036 2.17727C7.00772 2.2592 6.93559 2.36285 6.89401 2.47841C6.75908 2.84944 6.19069 4.68375 6.02468 5.162C5.97405 5.30576 5.87439 5.42968 5.74123 5.51438C5.60808 5.59909 5.44894 5.63982 5.28865 5.63022C4.55262 5.58163 1.74998 5.24994 1.37787 5.22062C1.23495 5.21112 1.0922 5.24116 0.967124 5.30707C0.842046 5.37297 0.740081 5.47188 0.673734 5.59165C0.208064 6.64131 -0.0208702 7.77089 0.001494 8.90854C0.0251164 9.04649 0.0935985 9.17411 0.197474 9.27374C0.301349 9.37338 0.435484 9.44011 0.581322 9.4647C0.870828 9.51329 3.3856 9.85501 3.6751 9.89358C3.7735 9.90923 3.8674 9.94395 3.95086 9.99554C4.03432 10.0471 4.10554 10.1145 4.16002 10.1933C4.2145 10.2722 4.25106 10.3609 4.2674 10.4537C4.28373 10.5466 4.27949 10.6416 4.25494 10.7328C2.08201 18.735 2.39359 23.9626 9.77026 23.9626C15.8957 23.9626 20.5302 16.741 22.6819 9.86118C23.2272 10.298 23.7421 10.7674 24.2235 11.2666C24.3885 11.4699 24.4813 11.7171 24.4888 11.973C24.4963 12.2289 24.418 12.4805 24.2652 12.6921C22.7113 14.8388 17.3138 23.1056 25.1549 23.9634C28.0107 24.2657 30.4421 22.6651 32.4384 20.3425C32.6019 21.8745 33.5244 23.8461 37.198 23.8461C40.354 23.8461 42.4852 21.5721 43.8092 19.4254C43.7569 19.6205 42.733 23.8461 46.5301 23.8461C48.434 23.8461 50.4613 22.4576 52.1068 20.8987C51.9824 21.4063 51.8614 21.9138 51.7338 22.4414C51.6746 22.674 51.7111 22.9191 51.8358 23.1274C51.9605 23.3356 52.1643 23.4916 52.4061 23.5638C53.6802 24.0139 55.0901 23.9787 56.3373 23.4658C56.4754 23.4035 56.5966 23.3123 56.6916 23.1991C56.7865 23.0858 56.8528 22.9536 56.8852 22.8125C57.0823 21.9825 57.5787 19.953 58.3753 17.1321H58.4063C59.1203 20.9674 61.5517 23.8361 65.5867 23.8361C68.5251 23.8361 70.9025 22.2162 72.8195 19.7663C73.2946 22.2748 74.7536 23.9634 77.8163 23.9634C80.7653 23.9634 83.155 22.3234 85.0793 19.8651C85.7 22.6165 87.397 23.9634 90.7696 23.9634C93.2228 23.9098 95.5908 23.1045 97.5158 21.6693C97.5158 21.66 97.5051 21.66 97.5051 21.65C97.1139 20.9347 96.9117 20.1408 96.9155 19.3359C96.9179 18.1028 97.3976 16.9129 98.2643 15.9897C99.1311 15.0665 100.325 14.4735 101.623 14.322H101.654C101.674 14.088 101.684 13.8636 101.685 13.6486C101.685 7.55864 95.4459 7.55864 95.4459 7.55864C89.5176 7.55864 85.0687 11.9115 84.8102 16.5065C83.3382 18.8685 81.5513 20.7421 79.5231 21.0252C76.1921 21.4934 77.0696 16.1262 78.8508 10.5438C78.8883 10.4281 78.9641 10.3268 79.0671 10.2547C79.1702 10.1827 79.295 10.1437 79.4233 10.1435C80.9677 10.1452 82.5101 10.0377 84.0374 9.82184C84.1376 9.80558 84.2319 9.76575 84.3116 9.70602C84.3912 9.6463 84.4536 9.56861 84.4929 9.48013C84.7569 8.86037 84.8838 8.19625 84.8658 7.52856C84.8646 7.45249 84.8472 7.37743 84.8145 7.30788C84.7818 7.23833 84.7346 7.17572 84.6756 7.12379C84.6167 7.07186 84.5472 7.03169 84.4714 7.00568C84.3956 6.97966 84.315 6.96835 84.2345 6.9724C83.1582 7.04105 82.0207 7.06034 80.8929 7.04954C80.7973 7.04985 80.703 7.02833 80.6181 6.98682C80.5331 6.94531 80.4602 6.88505 80.4053 6.81116C80.3504 6.73728 80.3153 6.65198 80.3029 6.56252C80.2906 6.47307 80.3014 6.38213 80.3343 6.29745C80.7104 5.17554 81.1527 4.07436 81.6592 2.99908C81.7033 2.90459 81.7264 2.80261 81.7272 2.69938C81.7279 2.59616 81.7063 2.49387 81.6637 2.39881C81.621 2.30375 81.5582 2.21791 81.4791 2.14657C81.4 2.07523 81.3063 2.0199 81.2037 1.98396C79.9642 1.5192 78.606 1.41391 77.3027 1.68158C77.1772 1.70663 77.0598 1.75949 76.9603 1.83581C76.8607 1.91214 76.7819 2.00972 76.7302 2.12049C76.0194 3.50128 75.4479 4.94212 75.0235 6.42396C74.9829 6.54426 74.9005 6.64817 74.7897 6.71897C74.6789 6.78977 74.5461 6.82334 74.4126 6.81427C73.8025 6.77571 73.3257 6.73714 73.0158 6.71631C72.8964 6.7034 72.7758 6.7255 72.6703 6.77961C72.5648 6.83372 72.4795 6.91721 72.4261 7.01869C72.1083 7.661 72.0037 8.37888 72.126 9.07824C72.1442 9.19216 72.2 9.29779 72.2854 9.38015C72.3709 9.46252 72.4816 9.51746 72.6019 9.53721C72.8473 9.5858 73.0877 9.62514 73.3257 9.66448C73.4076 9.67637 73.4858 9.70447 73.5553 9.74691C73.6249 9.78936 73.6841 9.84519 73.7291 9.91076C73.7742 9.97632 73.804 10.0501 73.8166 10.1273C73.8293 10.2045 73.8244 10.2834 73.8025 10.3587C73.237 12.5263 72.8496 14.7317 72.6436 16.9555C71.1331 19.4146 69.3724 20.6048 67.305 20.8979C64.9979 21.2204 63.1668 18.8484 62.8773 15.5207V15.5115C64.612 14.7075 66.1608 13.5874 67.4341 12.216C68.7075 10.8445 69.6804 9.24878 70.2965 7.52085C70.3591 7.34042 70.3483 7.14446 70.266 6.97118C70.1838 6.7979 70.036 6.65974 69.8516 6.58363C68.5603 6.10991 67.1309 6.09265 65.8272 6.53504C65.6916 6.57661 65.5698 6.65062 65.4736 6.74986C65.3774 6.84909 65.3102 6.97015 65.2784 7.10122C64.1507 11.8151 60.706 13.0246 60.0232 13.2105C59.9716 13.2297 59.723 13.2876 59.5161 13.337C60.3536 10.1744 63.0327 3.44185 63.2094 3.00062C63.2547 2.88357 63.2704 2.75817 63.2553 2.63438C63.2401 2.51059 63.1946 2.39184 63.1223 2.28758C63.0499 2.18331 62.9528 2.09642 62.8386 2.0338C62.7243 1.97118 62.5962 1.93457 62.4643 1.92688C61.6127 2.013 60.8032 2.32065 60.1262 2.8155C59.4722 3.16237 58.7626 3.40624 58.0253 3.5375C57.9217 3.55726 57.8257 3.60302 57.7474 3.66995C57.6691 3.73688 57.6114 3.8225 57.5804 3.91778C57.5481 4.00402 57.5208 4.09182 57.4986 4.18082C57.4781 4.23019 57.4675 4.26876 57.4471 4.3081C55.7393 8.58138 54.2717 12.9367 53.0505 17.3558C51.5915 19.3853 50.0295 20.6927 48.8707 20.6927C46.9259 20.6927 48.7889 15.3356 49.4194 13.6663C49.475 13.5164 49.4757 13.3532 49.4212 13.2028C49.3668 13.0525 49.2605 12.9237 49.1193 12.8371C48.0228 12.208 46.7227 11.9726 45.4571 12.1737C45.3108 12.1964 45.1732 12.254 45.0572 12.3411C44.9412 12.4282 44.8509 12.5419 44.7947 12.6713C39.932 23.6108 37.5219 21.542 37.7615 18.2629C37.9897 14.9352 41.4654 10.5338 44.8904 10.5338C46.8024 10.5523 48.6768 11.0365 50.3321 11.9392C50.4785 12.0174 50.6462 12.0526 50.8138 12.0404C50.9815 12.0281 51.1415 11.969 51.2734 11.8706C51.6297 11.6093 51.9405 11.297 52.1943 10.945C52.2994 10.7908 52.3519 10.6099 52.3446 10.4267C52.3373 10.2435 52.2705 10.0669 52.1534 9.92058C51.4811 9.08133 49.6803 7.4522 45.6763 7.4522C40.6999 7.4522 33.7166 11.444 32.6297 17.5039C26.95 24.8712 24.3322 20.412 27.9846 15.3572C29.9195 12.6736 30.6122 11.5775 27.3123 9.12144C24.0125 6.6654 24.9014 6.5065 24.9014 5.05247C24.9014 3.59844 21.8804 2.21229 20.7109 5.43275C20.5045 5.96684 20.4552 6.54364 20.568 7.10204C20.6809 7.66044 20.9518 8.17964 21.3521 8.60462C19.8318 13.1133 15.6413 20.442 11.4819 21.0237C8.14036 21.4919 9.41287 15.8516 11.1818 10.2692C11.218 10.1529 11.2935 10.0509 11.3969 9.97872C11.5002 9.90659 11.6257 9.86829 11.7543 9.86967C13.3024 9.8757 14.8486 9.7679 16.379 9.54723C16.4772 9.53279 16.5697 9.49466 16.6477 9.43655C16.7256 9.37843 16.7863 9.3023 16.8239 9.21554C17.1864 8.31261 17.4161 7.36714 17.5068 6.40545C17.5056 6.32938 17.4881 6.25432 17.4554 6.18477C17.4227 6.11522 17.3755 6.0526 17.3165 6.00068C17.2576 5.94875 17.1881 5.90858 17.1123 5.88256C17.0365 5.85655 16.956 5.84523 16.8754 5.84929C15.7992 5.90792 14.6616 5.92643 13.533 5.92643C13.4374 5.92656 13.3432 5.90492 13.2584 5.86336C13.1736 5.8218 13.1007 5.76155 13.0459 5.68772C12.991 5.61389 12.9559 5.52866 12.9435 5.43928C12.931 5.34991 12.9417 5.25902 12.9744 5.17434C13.4095 4.00341 14.1128 1.85746 14.3197 1.3175C14.375 1.17415 14.3942 1.02064 14.3758 0.869102C14.3573 0.717564 14.3017 0.572149 14.2134 0.444353C14.1252 0.316557 14.0066 0.209885 13.867 0.132764C13.7275 0.0556441 13.5709 0.0101918 13.4095 0H13.3237C12.3181 0.134986 11.3654 0.508408 10.5545 1.08531" fill="#FCFCFE"/>
<path d="M98.5664 19.3447C98.5664 20.0381 98.7844 20.716 99.1928 21.2925C99.6013 21.869 100.182 22.3184 100.861 22.5837C101.54 22.8491 102.288 22.9185 103.009 22.7832C103.73 22.648 104.392 22.3141 104.912 21.8238C105.431 21.3335 105.785 20.7088 105.929 20.0287C106.072 19.3486 105.999 18.6437 105.717 18.0031C105.436 17.3625 104.96 16.8149 104.348 16.4297C103.737 16.0445 103.019 15.8389 102.283 15.8389C101.795 15.8389 101.312 15.9296 100.861 16.1057C100.41 16.2819 100 16.5402 99.6551 16.8657C99.3099 17.1913 99.0361 17.5778 98.8493 18.0031C98.6625 18.4285 98.5664 18.8843 98.5664 19.3447Z" fill="#FE6E46"/>
</svg>
