<svg width="21" height="14" viewBox="0 0 21 14" fill="none" xmlns="http://www.w3.org/2000/svg">
<path d="M0 12.3256C0 12.7696 0.192391 13.1955 0.534848 13.5095C0.87731 13.8236 1.34178 14 1.82609 14H19.1739C19.6582 14 20.1227 13.8236 20.4651 13.5095C20.8076 13.1955 21 12.7696 21 12.3256V5.2093C21 5.15379 20.9759 5.10056 20.9331 5.06131C20.8904 5.02206 20.8323 5 20.7717 5H0.228261C0.167723 5 0.109663 5.02206 0.066856 5.06131C0.0240489 5.10056 0 5.15379 0 5.2093V12.3256ZM15.0652 10.4419H17.8043C17.986 10.4419 18.1601 10.508 18.2885 10.6258C18.417 10.7435 18.4891 10.9032 18.4891 11.0698C18.4891 11.2362 18.417 11.396 18.2885 11.5138C18.1601 11.6315 17.986 11.6977 17.8043 11.6977H15.0652C14.8836 11.6977 14.7094 11.6315 14.581 11.5138C14.4525 11.396 14.3804 11.2362 14.3804 11.0698C14.3804 10.9032 14.4525 10.7435 14.581 10.6258C14.7094 10.508 14.8836 10.4419 15.0652 10.4419ZM3.65217 7.09304H10.9565C11.1381 7.09304 11.3123 7.15915 11.4407 7.27694C11.5692 7.39472 11.6413 7.55438 11.6413 7.72094C11.6413 7.88742 11.5692 8.04717 11.4407 8.16495C11.3123 8.28265 11.1381 8.34884 10.9565 8.34884H3.65217C3.47056 8.34884 3.29638 8.28265 3.16796 8.16495C3.03954 8.04717 2.96739 7.88742 2.96739 7.72094C2.96739 7.55438 3.03954 7.39472 3.16796 7.27694C3.29638 7.15915 3.47056 7.09304 3.65217 7.09304ZM3.65217 10.4419H6.39131C6.57292 10.4419 6.7471 10.508 6.87552 10.6258C7.00394 10.7435 7.07609 10.9032 7.07609 11.0698C7.07609 11.2362 7.00394 11.396 6.87552 11.5138C6.7471 11.6315 6.57292 11.6977 6.39131 11.6977H3.65217C3.47056 11.6977 3.29638 11.6315 3.16796 11.5138C3.03954 11.396 2.96739 11.2362 2.96739 11.0698C2.96739 10.9032 3.03954 10.7435 3.16796 10.6258C3.29638 10.508 3.47056 10.4419 3.65217 10.4419Z" fill="#D3DEFF"/>
<path d="M21 1.6C21 1.17565 20.8076 0.768691 20.4651 0.468625C20.1227 0.168567 19.6582 0 19.1739 0H1.82609C1.34178 0 0.87731 0.168567 0.534848 0.468625C0.192391 0.768691 0 1.17565 0 1.6V2.8C0 2.85305 0.0240489 2.90391 0.066856 2.94143C0.109663 2.97893 0.167723 3 0.228261 3H20.7717C20.8323 3 20.8904 2.97893 20.9331 2.94143C20.9759 2.90391 21 2.85305 21 2.8V1.6Z" fill="#D3DEFF"/>
</svg>
